<svg width="1307" height="277" viewBox="0 0 1307 277" fill="none" xmlns="http://www.w3.org/2000/svg">
<path d="M437.64 67.9341H430.733C423.99 67.9341 421.029 69.908 416.589 77.31L379.749 137.02L364.454 77.9679C362.644 70.8949 360.671 68.0986 352.941 68.0986H347.185C339.619 68.0986 334.85 72.5398 333.37 80.4353L316.265 176.497C314.95 183.735 318.239 187.518 324.489 187.518H327.12C333.699 187.518 336.659 184.228 337.81 177.155L351.625 99.516L364.947 151.495C366.098 156.758 367.085 160.213 377.117 160.213C385.505 160.213 387.479 157.252 390.439 152.482L423.003 99.0226L409.188 176.662C407.872 184.064 411.161 187.682 417.247 187.682H420.043C426.621 187.682 429.582 184.228 430.733 177.319L447.673 80.5998C449.153 72.8688 445.37 67.9341 437.64 67.9341Z" fill="#DF2127"/>
<path d="M540.429 136.691C539.607 113.333 523.819 96.2263 497.175 96.2263C466.749 96.2263 448.165 121.064 448.987 148.205C449.974 173.043 467.078 188.998 492.241 188.998C523.49 188.834 541.252 163.831 540.429 136.691ZM492.406 171.891C478.097 171.891 469.052 161.529 468.558 147.382C467.901 129.124 479.907 113.004 497.011 113.004C510.168 113.004 520.529 123.367 521.023 137.678C521.516 156.923 509.51 171.891 492.406 171.891Z" fill="#DF2127"/>
<path d="M608.356 96.2263C595.692 96.2263 585.66 102.477 578.917 113.004C579.575 100.996 572.996 97.5422 566.253 97.5422C563.128 97.5422 560.661 98.3646 560.497 98.6936L546.682 176.826C545.366 184.886 549.806 187.189 555.727 187.189H558.194C564.608 187.189 567.24 184.557 568.555 176.826L576.779 129.947C582.699 119.584 589.278 114.649 599.475 114.649C609.672 114.649 615.757 120.735 615.921 130.769C616.086 133.401 615.428 136.691 614.934 140.638L608.52 176.826C607.205 184.886 611.81 187.189 617.566 187.189H620.033C626.447 187.189 629.078 184.557 630.394 176.826L637.466 136.855C638.288 132.414 638.782 128.466 638.617 124.847C638.124 108.069 626.94 96.2263 608.356 96.2263Z" fill="#DF2127"/>
<path d="M997.476 96.2263C987.115 96.2263 979.385 102.148 974.122 113.004C974.945 100.996 968.366 97.5422 961.623 97.5422C958.334 97.5422 956.031 98.3646 955.867 98.6936L941.887 176.826C940.572 184.886 945.834 187.189 951.755 187.189H954.222C959.814 187.189 962.445 184.557 963.926 176.826L968.531 150.672C971.984 130.276 979.55 116.129 991.72 116.129C997.641 116.129 1001.42 118.597 1003.89 121.393C1004.22 121.722 1013.43 118.103 1013.1 107.247C1012.61 100.503 1005.86 96.2263 997.476 96.2263Z" fill="#DF2127"/>
<path d="M1103.72 97.5422C1095.17 97.5422 1090.4 101.654 1087.6 112.511C1082.18 102.312 1070.99 96.0618 1058 96.0618C1030.37 96.0618 1011.13 120.735 1011.13 148.698C1011.13 171.727 1025.27 188.834 1047.64 188.834C1061.29 188.834 1071.82 183.241 1078.56 171.891C1077.57 183.735 1079.88 187.353 1088.43 187.353C1095.99 187.353 1098.46 184.557 1099.28 176.168C1100.27 160.706 1105.53 135.539 1111.62 100.174C1111.62 99.516 1108.16 97.5422 1103.72 97.5422ZM1052.41 171.891C1038.92 171.891 1031.19 163.338 1031.19 148.205C1031.19 130.44 1041.55 112.675 1060.8 112.675C1076.42 112.675 1083 124.189 1083 136.855C1083 152.811 1072.15 171.891 1052.41 171.891Z" fill="#DF2127"/>
<path d="M1234.96 96.2263C1219.83 96.2263 1209.8 103.957 1202.73 115.307C1199.27 103.299 1188.91 96.2263 1175.76 96.2263C1164.24 96.2263 1154.21 101.654 1147.3 112.017C1147.63 100.996 1141.22 97.7067 1134.64 97.7067C1131.35 97.7067 1129.05 98.5291 1128.88 98.8581L1115.07 176.991C1113.75 185.05 1118.19 187.353 1124.11 187.353H1126.58C1132.17 187.353 1135.63 185.05 1136.94 176.991L1145.49 128.466C1151.74 118.761 1157.66 114.649 1166.87 114.649C1175.92 114.649 1181.51 121.393 1181.51 131.591C1181.51 133.236 1181.35 135.046 1181.02 137.02L1174.11 176.991C1172.8 185.05 1177.4 187.353 1183.16 187.353H1185.46C1191.05 187.353 1194.67 184.886 1195.98 176.991L1204.54 128.466C1210.79 118.761 1216.71 114.649 1225.92 114.649C1234.63 114.649 1241.05 119.913 1241.05 130.769C1241.05 133.401 1240.55 136.691 1239.9 140.638L1233.48 176.826C1232.17 184.886 1236.61 187.189 1242.53 187.189H1245C1251.41 187.189 1254.04 184.557 1255.36 176.826L1262.43 136.855C1263.25 132.414 1263.58 128.466 1263.58 124.847C1263.74 107.247 1251.9 96.2263 1234.96 96.2263Z" fill="#DF2127"/>
<path d="M738.448 135.375C738.448 123.203 735.981 115.143 730.553 108.069C724.633 100.503 713.614 95.8973 700.785 95.8973C661.972 95.8973 647.992 124.518 647.992 149.356C647.992 173.043 665.096 188.834 691.411 188.834C717.725 188.834 732.527 177.155 732.527 167.779C732.527 161.529 728.086 159.39 722.988 158.897C716.081 167.779 706.542 172.056 693.549 172.056C682.036 172.056 668.386 167.615 667.399 147.053H727.1C733.514 147.218 738.448 143.599 738.448 135.375ZM719.205 132.578H669.373C674.142 119.913 685.161 112.017 699.141 112.017C706.213 112.017 711.64 113.991 715.258 117.939C718.383 121.558 719.534 126.492 719.205 132.578Z" fill="#DF2127"/>
<path d="M923.797 123.367H888.273C883.997 123.367 882.023 124.354 880.707 125.67C878.569 127.973 877.418 133.236 877.418 135.539C877.582 139.158 880.707 141.296 886.464 141.296H911.627C908.173 158.897 896.989 171.069 877.747 171.069C857.518 171.069 844.032 158.239 843.209 136.362C842.223 108.892 860.478 86.1924 886.299 86.1924C901.43 86.1924 913.271 94.2524 918.041 104.944C918.699 105.767 932.678 105.767 932.185 93.7589C932.02 89.4822 929.553 84.383 924.948 80.1063C917.547 72.7043 903.568 66.2892 884.983 66.2892C858.998 66.2892 838.44 80.5998 827.75 101.325C827.75 101.161 827.585 101.161 827.585 101.161C825.447 98.3646 821.993 97.0487 818.54 97.0487C812.783 97.0487 809.001 98.8581 803.409 108.727L775.779 157.252L765.418 108.892C763.444 99.845 760.155 97.0487 754.399 97.0487C747.655 97.0487 742.228 101.983 742.393 103.135L762.128 181.267L741.735 214.823C739.597 218.442 739.432 223.212 747.162 223.212H751.438C759.497 223.212 762.128 218.277 766.075 211.533L821.665 117.445C820.02 124.025 819.198 131.098 819.526 138.336C820.513 169.917 841.894 188.998 873.142 188.998C887.944 188.998 899.785 183.406 906.364 174.852C905.87 184.064 910.804 187.682 917.383 187.682C921.001 187.682 923.633 186.531 923.633 185.873L932.678 135.21C934.158 127.315 931.198 123.367 923.797 123.367Z" fill="#DF2127"/>
<path d="M1287.1 177.648C1287.76 178.8 1288.25 179.293 1289.07 179.293C1289.07 179.293 1289.24 180.609 1287.59 180.609C1286.61 180.609 1285.95 180.116 1284.96 178.306L1283.15 175.017H1281.51L1280.68 179.622C1280.52 180.28 1280.19 180.609 1279.53 180.609H1279.2C1278.55 180.609 1278.22 180.28 1278.38 179.458L1280.68 167.615C1280.85 166.792 1281.34 166.463 1282.16 166.463H1285.62C1288.74 166.463 1290.55 167.779 1290.55 170.082C1290.55 172.878 1288.74 174.688 1285.62 174.852L1287.1 177.648ZM1284.96 173.207C1287.1 173.207 1288.25 172.056 1288.09 170.246C1288.09 168.931 1287.1 168.108 1285.29 168.108H1282.82L1281.84 173.043H1284.96V173.207Z" fill="#DF2127"/>
<path d="M1284.47 162.68C1290.88 162.68 1295.98 167.944 1295.98 174.194C1295.98 180.609 1290.72 185.708 1284.47 185.708C1278.05 185.708 1272.95 180.445 1272.95 174.194C1272.79 167.944 1278.05 162.68 1284.47 162.68ZM1284.47 160.706C1277.07 160.706 1270.98 166.792 1270.98 174.194C1270.98 181.596 1277.07 187.682 1284.47 187.682C1291.87 187.682 1297.95 181.596 1297.95 174.194C1297.95 166.792 1291.87 160.706 1284.47 160.706Z" fill="#DF2127"/>
<path d="M139.631 268.94C211.661 268.94 270.052 210.54 270.052 138.5C270.052 66.46 211.661 8.06 139.631 8.06C67.6021 8.06 9.21094 66.46 9.21094 138.5C9.21094 210.54 67.6021 268.94 139.631 268.94Z" fill="white"/>
<path d="M270.052 138.5C270.052 210.546 211.667 268.94 139.631 268.94C67.5959 268.94 9.21094 210.546 9.21094 138.5C9.21094 118.597 13.6515 99.845 21.5458 83.0671C16.2829 96.3908 13.8159 109.714 13.8159 122.051C13.8159 181.103 61.5107 189.656 81.7398 189.492C112.659 189.163 148.677 174.03 179.103 146.067C179.103 146.067 175.156 168.108 174.004 174.852C172.853 181.432 177.129 187.189 183.708 187.189H186.339C193.082 187.189 198.016 181.596 199.168 174.852L210.187 113.333C211.502 106.425 207.062 100.996 200.154 100.996H138.645C131.737 100.996 125.487 104.615 124.336 111.524C124.336 111.853 123.843 113.827 123.843 114.32C122.856 120.9 127.461 125.834 134.04 125.834H166.11C165.617 126.328 165.123 126.821 164.63 127.315C142.427 148.205 114.962 159.719 92.2655 159.719C69.7339 159.719 44.4064 145.409 44.4064 113.333C44.4064 46.715 106.903 8.06 139.631 8.06C211.502 8.06 270.052 66.4537 270.052 138.5Z" fill="#DF2127"/>
</svg>
