<svg xmlns="http://www.w3.org/2000/svg" viewBox="0 0 64 64">
<circle cx="32" cy="32" r="30" fill="#18d860"/>
<path fill="#fff" d="M32.2 14.5c-9.7 0-17.6 7.7-17.6 17.2 0 3.1.9 6.1 2.5 8.7l-2.7 9.1 9.5-2.5c2.5 1.3 5.3 2 8.3 2 9.7 0 17.6-7.7 17.6-17.2S41.9 14.5 32.2 14.5zm0 31.5c-2.7 0-5.2-.7-7.4-2.1l-.5-.3-5.6 1.5 1.6-5.3-.3-.5c-1.6-2.3-2.4-4.9-2.4-7.6 0-7.9 6.6-14.3 14.7-14.3s14.7 6.4 14.7 14.3S40.3 46 32.2 46zm8.1-10.7c-.4-.2-2.6-1.3-3-1.4-.4-.2-.7-.2-1 .2-.3.4-1.1 1.4-1.4 1.7-.3.3-.5.3-1 .1-.4-.2-1.9-.7-3.7-2.2-1.4-1.2-2.3-2.7-2.6-3.1-.3-.4 0-.7.2-.9.2-.2.4-.5.7-.8.2-.3.3-.4.4-.7.1-.3 0-.5 0-.8-.1-.2-1-2.3-1.3-3.2-.3-.8-.7-.7-1-.7h-.8c-.3 0-.8.1-1.2.5-.4.4-1.6 1.5-1.6 3.7s1.7 4.4 1.9 4.7c.2.3 3.3 5 8 7 1.1.5 2 .8 2.7 1 .1 0 .2.1.3.1 1.1.3 2.1.3 2.9.2.9-.1 2.6-1 3-2 .4-1 .4-1.9.3-2.1-.1-.2-.4-.3-.8-.5z"/>
</svg>